<svg width="55" height="40" viewBox="0 0 55 40" fill="none" xmlns="http://www.w3.org/2000/svg">
<path id="Vector" d="M54.2594 2.41772L18.0452 38.7298C17.9401 38.8353 17.8153 38.919 17.6779 38.9761C17.5405 39.0332 17.3933 39.0626 17.2446 39.0626C17.0958 39.0626 16.9486 39.0332 16.8112 38.9761C16.6738 38.919 16.549 38.8353 16.4439 38.7298L0.600203 22.8433C0.387852 22.6303 0.268555 22.3416 0.268555 22.0404C0.268555 21.7393 0.387853 21.4505 0.600204 21.2376C0.812556 21.0247 1.10057 20.905 1.40088 20.905C1.70119 20.905 1.9892 21.0247 2.20155 21.2376L17.2446 36.3213L52.658 0.812039C52.8704 0.599113 53.1584 0.479492 53.4587 0.479492C53.759 0.479492 54.047 0.599113 54.2594 0.812039C54.4717 1.02496 54.591 1.31375 54.591 1.61488C54.591 1.916 54.4717 2.20479 54.2594 2.41772Z" fill="#FF0331"/>
</svg>
