<svg width="22" height="22" viewBox="0 0 22 22" fill="none" xmlns="http://www.w3.org/2000/svg">
<g id="Group">
<path id="Vector" d="M14.25 13.25C14.25 13.5152 14.1446 13.7696 13.9571 13.9571C13.7696 14.1446 13.5152 14.25 13.25 14.25C12.9848 14.25 12.7304 14.1446 12.5429 13.9571C12.3554 13.7696 12.25 13.5152 12.25 13.25C12.25 12.9848 12.3554 12.7304 12.5429 12.5429C12.7304 12.3554 12.9848 12.25 13.25 12.25C13.5152 12.25 13.7696 12.3554 13.9571 12.5429C14.1446 12.7304 14.25 12.9848 14.25 13.25ZM9.25 8.25C9.25 8.51522 9.14464 8.76957 8.95711 8.95711C8.76957 9.14464 8.51522 9.25 8.25 9.25C7.98478 9.25 7.73043 9.14464 7.54289 8.95711C7.35536 8.76957 7.25 8.51522 7.25 8.25C7.25 7.98478 7.35536 7.73043 7.54289 7.54289C7.73043 7.35536 7.98478 7.25 8.25 7.25C8.51522 7.25 8.76957 7.35536 8.95711 7.54289C9.14464 7.73043 9.25 7.98478 9.25 8.25Z" fill="white"/>
<path id="Vector_2" fill-rule="evenodd" clip-rule="evenodd" d="M14.2798 7.22007C14.4203 7.3607 14.4992 7.55132 14.4992 7.75007C14.4992 7.94882 14.4203 8.13945 14.2798 8.28007L8.27985 14.2801C8.13767 14.4126 7.94963 14.4847 7.75532 14.4812C7.56102 14.4778 7.37564 14.3991 7.23823 14.2617C7.10081 14.1243 7.0221 13.9389 7.01867 13.7446C7.01524 13.5503 7.08737 13.3622 7.21985 13.2201L13.2198 7.22007C13.3605 7.07962 13.5511 7.00073 13.7498 7.00073C13.9486 7.00073 14.1392 7.07962 14.2798 7.22007Z" fill="white"/>
<path id="Vector_3" fill-rule="evenodd" clip-rule="evenodd" d="M10.693 0H10.807C13.116 0 14.925 5.96046e-08 16.337 0.19C17.781 0.384 18.921 0.79 19.816 1.684C20.711 2.579 21.116 3.719 21.31 5.164C21.5 6.575 21.5 8.384 21.5 10.693V10.807C21.5 13.116 21.5 14.925 21.31 16.337C21.116 17.781 20.71 18.921 19.816 19.816C18.921 20.711 17.781 21.116 16.336 21.31C14.925 21.5 13.116 21.5 10.807 21.5H10.693C8.384 21.5 6.575 21.5 5.163 21.31C3.719 21.116 2.579 20.71 1.684 19.816C0.789 18.921 0.384 17.781 0.19 16.336C5.96046e-08 14.925 0 13.116 0 10.807V10.693C0 8.384 5.96046e-08 6.575 0.19 5.163C0.384 3.719 0.79 2.579 1.684 1.684C2.579 0.789 3.719 0.384 5.164 0.19C6.575 5.96046e-08 8.384 0 10.693 0ZM5.363 1.676C4.085 1.848 3.314 2.176 2.745 2.745C2.175 3.315 1.848 4.085 1.676 5.364C1.502 6.664 1.5 8.372 1.5 10.75C1.5 13.128 1.502 14.836 1.676 16.136C1.848 17.415 2.176 18.186 2.745 18.756C3.315 19.325 4.085 19.652 5.364 19.824C6.664 19.998 8.372 20 10.75 20C13.128 20 14.836 19.998 16.136 19.824C17.415 19.652 18.186 19.324 18.756 18.755C19.325 18.185 19.652 17.415 19.824 16.136C19.998 14.836 20 13.128 20 10.75C20 8.372 19.998 6.664 19.824 5.364C19.652 4.085 19.324 3.314 18.755 2.744C18.185 2.175 17.415 1.848 16.136 1.676C14.836 1.502 13.128 1.5 10.75 1.5C8.372 1.5 6.663 1.502 5.363 1.676Z" fill="white"/>
</g>
</svg>
