<svg width="21" height="20" viewBox="0 0 21 20" fill="none" xmlns="http://www.w3.org/2000/svg">
<g id="evaKeypadOutline0">
<g id="evaKeypadOutline1">
<path id="evaKeypadOutline2" d="M3.5 1.37992e-06C2.90666 1.37992e-06 2.32664 0.175948 1.83329 0.505593C1.33994 0.835237 0.955426 1.30377 0.728363 1.85195C0.5013 2.40013 0.44189 3.00333 0.557646 3.58527C0.673401 4.16722 0.959124 4.70176 1.37868 5.12132C1.79824 5.54088 2.33279 5.8266 2.91473 5.94236C3.49667 6.05811 4.09987 5.9987 4.64805 5.77164C5.19623 5.54458 5.66477 5.16006 5.99441 4.66671C6.32405 4.17336 6.5 3.59335 6.5 3C6.5 2.20435 6.18393 1.44129 5.62132 0.878681C5.05871 0.316072 4.29565 1.37992e-06 3.5 1.37992e-06ZM3.5 4C3.30222 4 3.10888 3.94135 2.94443 3.83147C2.77998 3.72159 2.65181 3.56541 2.57612 3.38268C2.50043 3.19996 2.48063 2.99889 2.51922 2.80491C2.5578 2.61093 2.65304 2.43275 2.79289 2.29289C2.93275 2.15304 3.11093 2.0578 3.30491 2.01922C3.49889 1.98063 3.69996 2.00043 3.88268 2.07612C4.06541 2.15181 4.22159 2.27998 4.33147 2.44443C4.44135 2.60888 4.5 2.80222 4.5 3C4.5 3.26522 4.39464 3.51957 4.20711 3.70711C4.01957 3.89464 3.76522 4 3.5 4ZM10.5 1.37992e-06C9.90666 1.37992e-06 9.32664 0.175948 8.83329 0.505593C8.33994 0.835237 7.95543 1.30377 7.72836 1.85195C7.5013 2.40013 7.44189 3.00333 7.55765 3.58527C7.6734 4.16722 7.95912 4.70176 8.37868 5.12132C8.79824 5.54088 9.33279 5.8266 9.91473 5.94236C10.4967 6.05811 11.0999 5.9987 11.6481 5.77164C12.1962 5.54458 12.6648 5.16006 12.9944 4.66671C13.3241 4.17336 13.5 3.59335 13.5 3C13.5 2.20435 13.1839 1.44129 12.6213 0.878681C12.0587 0.316072 11.2957 1.37992e-06 10.5 1.37992e-06ZM10.5 4C10.3022 4 10.1089 3.94135 9.94443 3.83147C9.77998 3.72159 9.65181 3.56541 9.57612 3.38268C9.50043 3.19996 9.48063 2.99889 9.51922 2.80491C9.5578 2.61093 9.65304 2.43275 9.79289 2.29289C9.93275 2.15304 10.1109 2.0578 10.3049 2.01922C10.4989 1.98063 10.7 2.00043 10.8827 2.07612C11.0654 2.15181 11.2216 2.27998 11.3315 2.44443C11.4414 2.60888 11.5 2.80222 11.5 3C11.5 3.26522 11.3946 3.51957 11.2071 3.70711C11.0196 3.89464 10.7652 4 10.5 4ZM17.5 6C18.0933 6 18.6734 5.82405 19.1667 5.49441C19.6601 5.16477 20.0446 4.69623 20.2716 4.14805C20.4987 3.59987 20.5581 2.99667 20.4424 2.41473C20.3266 1.83279 20.0409 1.29824 19.6213 0.878681C19.2018 0.459124 18.6672 0.173401 18.0853 0.0576455C17.5033 -0.0581102 16.9001 0.00129986 16.352 0.228363C15.8038 0.455426 15.3352 0.839943 15.0056 1.33329C14.6759 1.82664 14.5 2.40666 14.5 3C14.5 3.79565 14.8161 4.55871 15.3787 5.12132C15.9413 5.68393 16.7044 6 17.5 6ZM17.5 2C17.6978 2 17.8911 2.05865 18.0556 2.16853C18.22 2.27841 18.3482 2.43459 18.4239 2.61732C18.4996 2.80004 18.5194 3.00111 18.4808 3.19509C18.4422 3.38907 18.347 3.56726 18.2071 3.70711C18.0673 3.84696 17.8891 3.9422 17.6951 3.98079C17.5011 4.01937 17.3 3.99957 17.1173 3.92388C16.9346 3.84819 16.7784 3.72002 16.6685 3.55557C16.5586 3.39112 16.5 3.19778 16.5 3C16.5 2.73478 16.6054 2.48043 16.7929 2.29289C16.9804 2.10536 17.2348 2 17.5 2ZM3.5 7C2.90666 7 2.32664 7.17595 1.83329 7.50559C1.33994 7.83524 0.955426 8.30377 0.728363 8.85195C0.5013 9.40013 0.44189 10.0033 0.557646 10.5853C0.673401 11.1672 0.959124 11.7018 1.37868 12.1213C1.79824 12.5409 2.33279 12.8266 2.91473 12.9424C3.49667 13.0581 4.09987 12.9987 4.64805 12.7716C5.19623 12.5446 5.66477 12.1601 5.99441 11.6667C6.32405 11.1734 6.5 10.5933 6.5 10C6.5 9.20435 6.18393 8.44129 5.62132 7.87868C5.05871 7.31607 4.29565 7 3.5 7ZM3.5 11C3.30222 11 3.10888 10.9414 2.94443 10.8315C2.77998 10.7216 2.65181 10.5654 2.57612 10.3827C2.50043 10.2 2.48063 9.99889 2.51922 9.80491C2.5578 9.61093 2.65304 9.43275 2.79289 9.29289C2.93275 9.15304 3.11093 9.0578 3.30491 9.01922C3.49889 8.98063 3.69996 9.00043 3.88268 9.07612C4.06541 9.15181 4.22159 9.27998 4.33147 9.44443C4.44135 9.60888 4.5 9.80222 4.5 10C4.5 10.2652 4.39464 10.5196 4.20711 10.7071C4.01957 10.8946 3.76522 11 3.5 11ZM10.5 7C9.90666 7 9.32664 7.17595 8.83329 7.50559C8.33994 7.83524 7.95543 8.30377 7.72836 8.85195C7.5013 9.40013 7.44189 10.0033 7.55765 10.5853C7.6734 11.1672 7.95912 11.7018 8.37868 12.1213C8.79824 12.5409 9.33279 12.8266 9.91473 12.9424C10.4967 13.0581 11.0999 12.9987 11.6481 12.7716C12.1962 12.5446 12.6648 12.1601 12.9944 11.6667C13.3241 11.1734 13.5 10.5933 13.5 10C13.5 9.20435 13.1839 8.44129 12.6213 7.87868C12.0587 7.31607 11.2957 7 10.5 7ZM10.5 11C10.3022 11 10.1089 10.9414 9.94443 10.8315C9.77998 10.7216 9.65181 10.5654 9.57612 10.3827C9.50043 10.2 9.48063 9.99889 9.51922 9.80491C9.5578 9.61093 9.65304 9.43275 9.79289 9.29289C9.93275 9.15304 10.1109 9.0578 10.3049 9.01922C10.4989 8.98063 10.7 9.00043 10.8827 9.07612C11.0654 9.15181 11.2216 9.27998 11.3315 9.44443C11.4414 9.60888 11.5 9.80222 11.5 10C11.5 10.2652 11.3946 10.5196 11.2071 10.7071C11.0196 10.8946 10.7652 11 10.5 11ZM17.5 7C16.9067 7 16.3266 7.17595 15.8333 7.50559C15.3399 7.83524 14.9554 8.30377 14.7284 8.85195C14.5013 9.40013 14.4419 10.0033 14.5576 10.5853C14.6734 11.1672 14.9591 11.7018 15.3787 12.1213C15.7982 12.5409 16.3328 12.8266 16.9147 12.9424C17.4967 13.0581 18.0999 12.9987 18.6481 12.7716C19.1962 12.5446 19.6648 12.1601 19.9944 11.6667C20.3241 11.1734 20.5 10.5933 20.5 10C20.5 9.20435 20.1839 8.44129 19.6213 7.87868C19.0587 7.31607 18.2957 7 17.5 7ZM17.5 11C17.3022 11 17.1089 10.9414 16.9444 10.8315C16.78 10.7216 16.6518 10.5654 16.5761 10.3827C16.5004 10.2 16.4806 9.99889 16.5192 9.80491C16.5578 9.61093 16.653 9.43275 16.7929 9.29289C16.9327 9.15304 17.1109 9.0578 17.3049 9.01922C17.4989 8.98063 17.7 9.00043 17.8827 9.07612C18.0654 9.15181 18.2216 9.27998 18.3315 9.44443C18.4414 9.60888 18.5 9.80222 18.5 10C18.5 10.2652 18.3946 10.5196 18.2071 10.7071C18.0196 10.8946 17.7652 11 17.5 11ZM3.5 14C2.90666 14 2.32664 14.1759 1.83329 14.5056C1.33994 14.8352 0.955426 15.3038 0.728363 15.852C0.5013 16.4001 0.44189 17.0033 0.557646 17.5853C0.673401 18.1672 0.959124 18.7018 1.37868 19.1213C1.79824 19.5409 2.33279 19.8266 2.91473 19.9424C3.49667 20.0581 4.09987 19.9987 4.64805 19.7716C5.19623 19.5446 5.66477 19.1601 5.99441 18.6667C6.32405 18.1734 6.5 17.5933 6.5 17C6.5 16.2044 6.18393 15.4413 5.62132 14.8787C5.05871 14.3161 4.29565 14 3.5 14ZM3.5 18C3.30222 18 3.10888 17.9414 2.94443 17.8315C2.77998 17.7216 2.65181 17.5654 2.57612 17.3827C2.50043 17.2 2.48063 16.9989 2.51922 16.8049C2.5578 16.6109 2.65304 16.4327 2.79289 16.2929C2.93275 16.153 3.11093 16.0578 3.30491 16.0192C3.49889 15.9806 3.69996 16.0004 3.88268 16.0761C4.06541 16.1518 4.22159 16.28 4.33147 16.4444C4.44135 16.6089 4.5 16.8022 4.5 17C4.5 17.2652 4.39464 17.5196 4.20711 17.7071C4.01957 17.8946 3.76522 18 3.5 18ZM10.5 14C9.90666 14 9.32664 14.1759 8.83329 14.5056C8.33994 14.8352 7.95543 15.3038 7.72836 15.852C7.5013 16.4001 7.44189 17.0033 7.55765 17.5853C7.6734 18.1672 7.95912 18.7018 8.37868 19.1213C8.79824 19.5409 9.33279 19.8266 9.91473 19.9424C10.4967 20.0581 11.0999 19.9987 11.6481 19.7716C12.1962 19.5446 12.6648 19.1601 12.9944 18.6667C13.3241 18.1734 13.5 17.5933 13.5 17C13.5 16.2044 13.1839 15.4413 12.6213 14.8787C12.0587 14.3161 11.2957 14 10.5 14ZM10.5 18C10.3022 18 10.1089 17.9414 9.94443 17.8315C9.77998 17.7216 9.65181 17.5654 9.57612 17.3827C9.50043 17.2 9.48063 16.9989 9.51922 16.8049C9.5578 16.6109 9.65304 16.4327 9.79289 16.2929C9.93275 16.153 10.1109 16.0578 10.3049 16.0192C10.4989 15.9806 10.7 16.0004 10.8827 16.0761C11.0654 16.1518 11.2216 16.28 11.3315 16.4444C11.4414 16.6089 11.5 16.8022 11.5 17C11.5 17.2652 11.3946 17.5196 11.2071 17.7071C11.0196 17.8946 10.7652 18 10.5 18ZM17.5 14C16.9067 14 16.3266 14.1759 15.8333 14.5056C15.3399 14.8352 14.9554 15.3038 14.7284 15.852C14.5013 16.4001 14.4419 17.0033 14.5576 17.5853C14.6734 18.1672 14.9591 18.7018 15.3787 19.1213C15.7982 19.5409 16.3328 19.8266 16.9147 19.9424C17.4967 20.0581 18.0999 19.9987 18.6481 19.7716C19.1962 19.5446 19.6648 19.1601 19.9944 18.6667C20.3241 18.1734 20.5 17.5933 20.5 17C20.5 16.2044 20.1839 15.4413 19.6213 14.8787C19.0587 14.3161 18.2957 14 17.5 14ZM17.5 18C17.3022 18 17.1089 17.9414 16.9444 17.8315C16.78 17.7216 16.6518 17.5654 16.5761 17.3827C16.5004 17.2 16.4806 16.9989 16.5192 16.8049C16.5578 16.6109 16.653 16.4327 16.7929 16.2929C16.9327 16.153 17.1109 16.0578 17.3049 16.0192C17.4989 15.9806 17.7 16.0004 17.8827 16.0761C18.0654 16.1518 18.2216 16.28 18.3315 16.4444C18.4414 16.6089 18.5 16.8022 18.5 17C18.5 17.2652 18.3946 17.5196 18.2071 17.7071C18.0196 17.8946 17.7652 18 17.5 18Z" fill="white"/>
</g>
</g>
</svg>
