<svg width="33" height="36" viewBox="0 0 33 36" fill="none" xmlns="http://www.w3.org/2000/svg">
<path d="M13.049 35.0717C14.8433 35.0717 16.3113 33.6036 16.3113 31.8094H9.78677C9.78677 33.6036 11.2548 35.0717 13.049 35.0717ZM22.8358 25.2849V17.1292C22.8358 12.1217 20.1771 7.92968 15.4957 6.82051V5.71134C15.4957 4.3575 14.4029 3.26465 13.049 3.26465C11.6952 3.26465 10.6023 4.3575 10.6023 5.71134V6.82051C5.93731 7.92968 3.26226 12.1054 3.26226 17.1292V25.2849L0 28.5471V30.1783H26.0981V28.5471L22.8358 25.2849ZM19.5735 26.916H6.52451V17.1292C6.52451 13.084 8.98752 9.78916 13.049 9.78916C17.1105 9.78916 19.5735 13.084 19.5735 17.1292V26.916Z" fill="black" fill-opacity="0.8"/>
</svg>
