<svg width="30" height="31" viewBox="0 0 30 31" fill="none" xmlns="http://www.w3.org/2000/svg">
<path d="M20.9962 19.4575H19.6693L19.1989 19.003C20.8451 17.084 21.8361 14.5927 21.8361 11.8825C21.8361 5.8394 16.9482 0.940918 10.918 0.940918C4.88792 0.940918 0 5.8394 0 11.8825C0 17.9257 4.88792 22.8242 10.918 22.8242C13.6223 22.8242 16.1083 21.831 18.0232 20.1813L18.4767 20.6527V21.9825L26.8752 30.3823L29.3779 27.8741L20.9962 19.4575ZM10.918 19.4575C6.73559 19.4575 3.3594 16.074 3.3594 11.8825C3.3594 7.69105 6.73559 4.30757 10.918 4.30757C15.1005 4.30757 18.4767 7.69105 18.4767 11.8825C18.4767 16.074 15.1005 19.4575 10.918 19.4575Z" fill="black"/>
</svg>
